Coordinates
version=1
nRows=16
nColumns=22
inDegrees=yes

Units are S.I. units (second, meters, Newtons, ...)
If the header above contains a line with 'inDegrees', this indicates whether rotational values are in degrees (yes) or radians (no).

endheader
time	pelvis_tilt	pelvis_list	pelvis_rotation	pelvis_tx	pelvis_ty	pelvis_tz	hip_flexion_r	hip_adduction_r	hip_rotation_r	knee_angle_r	ankle_angle_r	subtalar_angle_r	hip_flexion_l	hip_adduction_l	hip_rotation_l	knee_angle_l	ankle_angle_l	subtalar_angle_l	lumbar_extension	lumbar_bending	lumbar_rotation
      3.79000000	     -4.49038484	      1.12548493	    -85.03721041	      0.05474272	      0.93101576	      0.97238221	     -1.12465235	     10.07971830	     12.71657741	    -28.50989692	     16.97993502	     -3.43464223	     29.07511705	     -6.53355923	      1.22355241	    -20.57491414	      3.24154815	      1.87754987	     -4.25574961	      1.95815967	      9.15547778
      3.80000000	     -4.37165105	      1.24298553	    -84.96987480	      0.05811969	      0.93174742	      0.97946697	     -0.88581206	      9.87482225	     12.44018266	    -29.46571216	     16.25008459	     -3.10316077	     29.02692218	     -6.22245793	      1.24485648	    -21.04814836	      2.68328493	      1.78041886	     -4.05725256	      1.75284248	      8.79138550
      3.81000000	     -4.24683301	      1.30958351	    -84.88346616	      0.06153114	      0.93266781	      0.98655885	     -0.62455877	      9.66745280	     12.05389503	    -30.52190528	     15.44017537	     -2.85773570	     28.87029559	     -5.90846833	      1.28062526	    -21.44582541	      2.19658314	      1.85903208	     -3.91447859	      1.54678159	      8.41380807
      3.82000000	     -4.13642046	      1.36207606	    -84.79901923	      0.06490400	      0.93367258	      0.99361975	     -0.29972045	      9.47845491	     11.60145115	    -31.67127529	     14.50048973	     -2.58867860	     28.67695522	     -5.61997638	      1.30018426	    -21.81628556	      1.79983319	      1.97169744	     -3.78565177	      1.35489874	      8.04577436
      3.83000000	     -4.05247281	      1.41621175	    -84.73520897	      0.06822293	      0.93468813	      1.00059692	      0.13211342	      9.30882159	     11.06947580	    -32.94656641	     13.45901198	     -2.23261327	     28.45783247	     -5.37461779	      1.27342837	    -22.13701842	      1.50361750	      2.08565953	     -3.65773597	      1.19765832	      7.69175145
      3.84000000	     -3.94496192	      1.42867492	    -84.70977652	      0.07145835	      0.93577942	      1.00747645	      0.60181697	      9.11210523	     10.51994781	    -34.31769695	     12.28659470	     -1.94702613	     28.15143555	     -5.12035759	      1.23160550	    -22.40048178	      1.23386141	      2.15875295	     -3.59220506	      1.01441176	      7.38977530
      3.85000000	     -3.87313304	      1.46853386	    -84.71845655	      0.07463265	      0.93675358	      1.01420445	      1.22120152	      8.92432939	      9.88881437	    -35.82387648	     11.04116064	     -1.48476088	     27.86104033	     -4.91222857	      1.13608690	    -22.62133046	      1.05711053	      2.10432587	     -3.50271338	      0.88280989	      7.10689944
      3.86000000	     -3.78946337	      1.48246899	    -84.77144646	      0.07771024	      0.93769680	      1.02078802	      1.89615289	      8.71041168	      9.27179040	    -37.41811288	      9.69317089	     -0.89140497	     27.52941934	     -4.70414859	      1.00892396	    -22.82042361	      0.92880014	      1.88780596	     -3.46026958	      0.74326139	      6.85367405
      3.87000000	     -3.71005457	      1.47824060	    -84.86799077	      0.08070042	      0.93857982	      1.02721107	      2.63686116	      8.47349472	      8.64738147	    -39.09398796	      8.29379332	     -0.12024186	     27.15786161	     -4.50938394	      0.86146866	    -22.97195520	      0.82477719	      1.52832322	     -3.45363380	      0.61952416	      6.64091488
      3.88000000	     -3.61709244	      1.47978455	    -84.98437545	      0.08364196	      0.93931421	      1.03345329	      3.46406253	      8.18093722	      7.98759061	    -40.84697860	      6.93519969	      0.76670131	     26.81212497	     -4.30350048	      0.66295285	    -23.14062111	      0.76995206	      1.06963152	     -3.45691134	      0.49147689	      6.41746960
      3.89000000	     -3.52270803	      1.45419621	    -85.13520597	      0.08648526	      0.93997624	      1.03952638	      4.31349813	      7.86499996	      7.38460525	    -42.62877332	      5.64345071	      1.91021002	     26.44851226	     -4.10602260	      0.44902357	    -23.31777791	      0.77382910	      0.52230167	     -3.50616751	      0.37312479	      6.20946061
      3.90000000	     -3.41633286	      1.42450876	    -85.30344421	      0.08926576	      0.94051634	      1.04542213	      5.20634617	      7.49604266	      6.78314448	    -44.43159748	      4.55156445	      3.11799172	     26.10380366	     -3.90322243	      0.19695656	    -23.52016863	      0.83102661	     -0.01611804	     -3.57411595	      0.25371384	      5.99919387
      3.91000000	     -3.29966788	      1.37909896	    -85.48786817	      0.09198342	      0.94097561	      1.05114562	      6.11185104	      7.07818447	      6.19839542	    -46.21998488	      3.73251826	      4.34415007	     25.76110763	     -3.69699453	     -0.07378031	    -23.74255156	      0.94696381	     -0.51733324	     -3.67237868	      0.13636050	      5.79383821
      3.92000000	     -3.16619937	      1.31181967	    -85.68054853	      0.09462554	      0.94138183	      1.05670229	      7.00612983	      6.61954620	      5.65683645	    -47.95847297	      3.22030942	      5.44886225	     25.41896092	     -3.47682183	     -0.33745887	    -24.00106203	      1.14271109	     -0.95279331	     -3.80858851	      0.00889436	      5.56670144
      3.93000000	     -3.01725854	      1.23281771	    -85.88027323	      0.09722410	      0.94175737	      1.06210075	      7.89374178	      6.10589790	      5.11723714	    -49.61762649	      3.05124466	      6.29969761	     25.07463496	     -3.24187857	     -0.59641743	    -24.27017863	      1.38596386	     -1.31445598	     -3.96643948	     -0.12345224	      5.34004958
      3.94000000	     -2.85250532	      1.13730770	    -86.07861041	      0.09978393	      0.94214335	      1.06736093	      8.75559081	      5.54638862	      4.58556594	    -51.16039252	      3.19015778	      6.79816570	     24.71925682	     -2.98934233	     -0.84799514	    -24.54337883	      1.67492283	     -1.60470071	     -4.14960558	     -0.26154330	      5.10290111
